<mxfile host="app.diagrams.net" modified="2024-06-08T14:15:43.455Z" agent="Mozilla/5.0 (Windows NT 10.0; Win64; x64) AppleWebKit/537.36 (KHTML, like Gecko) Chrome/125.0.0.0 Safari/537.36" etag="6Kg-UUxVFil7ukCrAqY_" version="24.4.13" type="device">
  <diagram name="Страница — 1" id="p_MdWPj_orA9W3qVLT3j">
    <mxGraphModel dx="1687" dy="908" grid="1" gridSize="10" guides="1" tooltips="1" connect="1" arrows="1" fold="1" page="1" pageScale="1" pageWidth="827" pageHeight="1169" math="0" shadow="0">
      <root>
        <mxCell id="0" />
        <mxCell id="1" parent="0" />
        <mxCell id="UA4lRzashmr38mbabIqv-1" value="" style="group" parent="1" vertex="1" connectable="0">
          <mxGeometry width="827" height="90" as="geometry" />
        </mxCell>
        <mxCell id="UA4lRzashmr38mbabIqv-2" value="" style="group" parent="UA4lRzashmr38mbabIqv-1" vertex="1" connectable="0">
          <mxGeometry width="827" height="90" as="geometry" />
        </mxCell>
        <mxCell id="bCE9dmYTB7Am4N8Ju9b3-1" value="" style="rounded=0;whiteSpace=wrap;html=1;fillStyle=auto;fillColor=none;" parent="UA4lRzashmr38mbabIqv-2" vertex="1">
          <mxGeometry width="827" height="90" as="geometry" />
        </mxCell>
        <mxCell id="bCE9dmYTB7Am4N8Ju9b3-8" value="&lt;font style=&quot;font-size: 22px;&quot;&gt;ссылка&lt;/font&gt;" style="rounded=0;whiteSpace=wrap;html=1;" parent="UA4lRzashmr38mbabIqv-2" vertex="1">
          <mxGeometry x="640" y="15" width="120" height="60" as="geometry" />
        </mxCell>
        <mxCell id="UA4lRzashmr38mbabIqv-3" value="" style="group" parent="UA4lRzashmr38mbabIqv-1" vertex="1" connectable="0">
          <mxGeometry x="80" y="15" width="540" height="60" as="geometry" />
        </mxCell>
        <mxCell id="bCE9dmYTB7Am4N8Ju9b3-2" value="&lt;font style=&quot;font-size: 22px;&quot;&gt;логотип&lt;/font&gt;" style="rounded=0;whiteSpace=wrap;html=1;" parent="UA4lRzashmr38mbabIqv-3" vertex="1">
          <mxGeometry x="280" width="120" height="60" as="geometry" />
        </mxCell>
        <mxCell id="bCE9dmYTB7Am4N8Ju9b3-3" value="&lt;font style=&quot;font-size: 22px;&quot;&gt;ссылка&lt;/font&gt;" style="rounded=0;whiteSpace=wrap;html=1;" parent="UA4lRzashmr38mbabIqv-3" vertex="1">
          <mxGeometry x="420" width="120" height="60" as="geometry" />
        </mxCell>
        <mxCell id="bCE9dmYTB7Am4N8Ju9b3-9" value="&lt;font style=&quot;font-size: 22px;&quot;&gt;ссылка&lt;/font&gt;" style="rounded=0;whiteSpace=wrap;html=1;" parent="UA4lRzashmr38mbabIqv-3" vertex="1">
          <mxGeometry x="140" width="120" height="60" as="geometry" />
        </mxCell>
        <mxCell id="bCE9dmYTB7Am4N8Ju9b3-10" value="&lt;font style=&quot;font-size: 22px;&quot;&gt;ссылка&lt;/font&gt;" style="rounded=0;whiteSpace=wrap;html=1;" parent="UA4lRzashmr38mbabIqv-3" vertex="1">
          <mxGeometry width="120" height="60" as="geometry" />
        </mxCell>
        <mxCell id="UA4lRzashmr38mbabIqv-4" value="" style="group" parent="1" vertex="1" connectable="0">
          <mxGeometry y="690" width="827" height="90" as="geometry" />
        </mxCell>
        <mxCell id="UA4lRzashmr38mbabIqv-5" value="" style="group" parent="UA4lRzashmr38mbabIqv-4" vertex="1" connectable="0">
          <mxGeometry width="827" height="90" as="geometry" />
        </mxCell>
        <mxCell id="UA4lRzashmr38mbabIqv-6" value="" style="group" parent="UA4lRzashmr38mbabIqv-5" vertex="1" connectable="0">
          <mxGeometry width="827" height="90" as="geometry" />
        </mxCell>
        <mxCell id="bCE9dmYTB7Am4N8Ju9b3-69" value="" style="rounded=0;whiteSpace=wrap;html=1;fillStyle=auto;fillColor=none;" parent="UA4lRzashmr38mbabIqv-6" vertex="1">
          <mxGeometry width="827" height="90" as="geometry" />
        </mxCell>
        <mxCell id="bCE9dmYTB7Am4N8Ju9b3-70" value="&lt;font style=&quot;font-size: 22px;&quot;&gt;логотип&lt;/font&gt;" style="rounded=0;whiteSpace=wrap;html=1;" parent="UA4lRzashmr38mbabIqv-6" vertex="1">
          <mxGeometry x="354" y="15" width="120" height="60" as="geometry" />
        </mxCell>
        <mxCell id="XbhN0HBbEjZsctkORJQk-4" value="" style="group" vertex="1" connectable="0" parent="1">
          <mxGeometry x="154" y="190" width="520" height="60" as="geometry" />
        </mxCell>
        <mxCell id="XbhN0HBbEjZsctkORJQk-1" value="" style="rounded=1;whiteSpace=wrap;html=1;" vertex="1" parent="XbhN0HBbEjZsctkORJQk-4">
          <mxGeometry width="520" height="60" as="geometry" />
        </mxCell>
        <mxCell id="XbhN0HBbEjZsctkORJQk-2" value="&lt;font style=&quot;font-size: 21px;&quot;&gt;Телефон&lt;/font&gt;" style="text;html=1;align=center;verticalAlign=middle;whiteSpace=wrap;rounded=0;" vertex="1" parent="XbhN0HBbEjZsctkORJQk-4">
          <mxGeometry x="36" y="15" width="60" height="30" as="geometry" />
        </mxCell>
        <mxCell id="XbhN0HBbEjZsctkORJQk-5" value="" style="group" vertex="1" connectable="0" parent="1">
          <mxGeometry x="154" y="270" width="520" height="60" as="geometry" />
        </mxCell>
        <mxCell id="XbhN0HBbEjZsctkORJQk-6" value="" style="rounded=1;whiteSpace=wrap;html=1;" vertex="1" parent="XbhN0HBbEjZsctkORJQk-5">
          <mxGeometry width="520" height="60" as="geometry" />
        </mxCell>
        <mxCell id="XbhN0HBbEjZsctkORJQk-7" value="&lt;font style=&quot;font-size: 21px;&quot;&gt;Пароль&lt;/font&gt;" style="text;html=1;align=center;verticalAlign=middle;whiteSpace=wrap;rounded=0;" vertex="1" parent="XbhN0HBbEjZsctkORJQk-5">
          <mxGeometry x="36" y="15" width="60" height="30" as="geometry" />
        </mxCell>
        <mxCell id="XbhN0HBbEjZsctkORJQk-8" value="&lt;font style=&quot;font-size: 32px;&quot;&gt;&lt;b&gt;Вход&lt;/b&gt;&lt;/font&gt;" style="text;html=1;align=center;verticalAlign=middle;whiteSpace=wrap;rounded=0;" vertex="1" parent="1">
          <mxGeometry x="384" y="120" width="60" height="30" as="geometry" />
        </mxCell>
        <mxCell id="XbhN0HBbEjZsctkORJQk-9" value="&lt;font style=&quot;font-size: 24px;&quot;&gt;Вход&lt;/font&gt;" style="rounded=0;whiteSpace=wrap;html=1;" vertex="1" parent="1">
          <mxGeometry x="360" y="350" width="120" height="60" as="geometry" />
        </mxCell>
        <mxCell id="XbhN0HBbEjZsctkORJQk-10" value="&lt;font style=&quot;font-size: 21px;&quot;&gt;Создать аккаунт&lt;/font&gt;" style="text;html=1;align=center;verticalAlign=middle;whiteSpace=wrap;rounded=0;" vertex="1" parent="1">
          <mxGeometry x="315" y="430" width="210" height="30" as="geometry" />
        </mxCell>
      </root>
    </mxGraphModel>
  </diagram>
</mxfile>
